<svg width="32" height="32" viewBox="0 0 32 32" fill="none" xmlns="http://www.w3.org/2000/svg">
<g clip-path="url(#clip0_6_150)">
<path d="M16.0066 0L15.5031 0.00620757L15.5952 3.18448L16.0099 3.17827H16.0165C17.3795 3.17827 18.721 3.36964 20.0049 3.74627L21.0053 0.710766C19.3963 0.237203 17.7199 0 16.0165 0H16.0066ZM11.8207 0.493501C9.99253 0.935281 8.28146 1.65605 6.73303 2.64132L8.61539 5.27643C9.84368 4.49775 11.2024 3.92206 12.6565 3.57245L11.8207 0.493501ZM24.4146 2.12919L22.71 4.86984C24.004 5.58336 25.1317 6.49125 26.0601 7.56392L28.6697 5.54956C27.4852 4.1845 26.0557 3.035 24.4146 2.12919ZM3.89963 4.94433C2.60394 6.28079 1.6084 7.79976 0.941176 9.45723L4.0905 10.587C4.60608 9.30616 5.37824 8.12992 6.3875 7.08904L3.89963 4.94433ZM16.0066 6.35655C10.8878 6.35655 6.73961 9.91462 6.73961 14.3022C6.73961 16.9259 8.22778 19.2452 10.5142 20.6929L10.7939 25.0786L15.0029 22.1983C15.3331 22.23 15.6679 22.2479 16.0066 22.2479C21.1253 22.2479 25.2736 18.6898 25.2736 14.3022C25.2736 9.91462 21.1253 6.35655 16.0066 6.35655ZM30.6705 8.55713L27.6133 9.89176C28.23 11.1504 28.5728 12.4868 28.6335 13.8646L32 13.7342C31.9225 11.9385 31.4742 10.1971 30.6705 8.55713ZM0.0723982 12.9304C0.0252209 13.3817 0 13.8382 0 14.3022C0 15.6387 0.207638 16.9602 0.615385 18.2347L3.84039 17.3129C3.52869 16.3388 3.36981 15.3271 3.36981 14.3053C3.36981 13.9494 3.38868 13.5981 3.42575 13.25L0.0723982 12.9304ZM28.3768 16.5897C28.0584 17.9246 27.467 19.1855 26.6195 20.336L29.3838 22.1517C30.484 20.6627 31.2532 19.0267 31.6643 17.285L28.3768 16.5897ZM5.03826 19.8146L2.16536 21.4782C2.82753 22.4936 3.62797 23.434 4.54792 24.2778L4.72892 24.9141L7.98355 24.0885L7.55245 22.5676L7.18717 22.2572C6.34303 21.531 5.62123 20.7092 5.03826 19.8146ZM24.6615 22.3938C23.5528 23.3123 22.2821 24.0376 20.8836 24.5509L22.1078 27.5119C23.8719 26.8636 25.4792 25.9454 26.8828 24.7837L24.6615 22.3938ZM18.0173 25.271C17.6028 25.3298 17.1826 25.3683 16.849 25.3889C16.5575 25.3889 16.5565 25.3869 12.8902 26.5994L14.0058 29.6008L17.1847 28.5517C17.6329 28.5215 18.0761 28.4755 18.5142 28.4151L18.0173 25.271ZM8.87207 27.2202L5.61744 28.0427L6.7429 32L10.8433 30.6436L9.73098 27.6454L9.05636 27.8658L8.87207 27.2202Z" fill="black"/>
</g>
<defs>
<clipPath id="clip0_6_150">
<rect width="32" height="32" fill="white"/>
</clipPath>
</defs>
</svg>
