<svg width="32" height="32" viewBox="0 0 32 32" fill="none" xmlns="http://www.w3.org/2000/svg">
<g clip-path="url(#clip0_6_144)">
<path d="M19.904 0H12.8C5.856 0 0 5.03273 0 10.9818V16.0582C0 20.9891 1.632 24.1891 4.992 25.8327V29.1782C4.992 30.3127 5.744 31.3309 6.88 31.7673C7.28 31.9273 7.68 32 8.096 32C8.88 32 9.664 31.7236 10.256 31.2L14.992 27.04H19.904C26.576 27.04 32 22.1091 32 16.0582V10.9818C32 4.91636 26.576 0 19.904 0ZM23.712 19.9418C23.472 20.2327 23.184 20.5527 22.896 20.8727C22.064 21.7455 20.704 22.0655 19.52 21.6145C16.816 20.6109 13.584 18.5745 11.536 16.8582C9.872 15.4473 7.888 12.16 6.704 10.0364C6.08 8.90182 6.432 7.53455 7.552 6.74909L8.48 6.09455C9.152 5.62909 10.112 5.76 10.592 6.38545L12.416 8.72727C12.848 9.29455 12.736 10.0655 12.144 10.5018L11.648 10.88C11.216 11.2145 11.024 11.7382 11.152 12.2327C11.392 13.0473 12.032 14.24 13.184 15.36C14.576 16.7127 15.792 17.1636 16.544 17.3091C17.04 17.3964 17.536 17.2218 17.872 16.8873L18.368 16.3782C18.864 15.8109 19.76 15.6945 20.4 16.1164L23.392 18.08C24.064 18.5164 24.192 19.3455 23.712 19.9418ZM16.8 10.9091C16.8 10.5018 17.152 10.1818 17.6 10.1818C19.52 10.1818 20.8 11.3455 20.8 13.0909C20.8 13.4982 20.448 13.8182 20 13.8182C19.552 13.8182 19.2 13.4982 19.2 13.0909C19.2 12.16 18.64 11.6364 17.6 11.6364C17.152 11.6364 16.8 11.3164 16.8 10.9091ZM23.2 13.8182C22.752 13.8182 22.4 13.4982 22.4 13.0909C22.4 10.8945 20.016 8.72727 17.6 8.72727C17.152 8.72727 16.8 8.40727 16.8 8C16.8 7.59273 17.152 7.27273 17.6 7.27273C20.896 7.27273 24 10.0945 24 13.0909C24 13.4982 23.648 13.8182 23.2 13.8182ZM26.4 13.8182C25.952 13.8182 25.6 13.4982 25.6 13.0909C25.6 9.64364 22.32 5.81818 17.6 5.81818C17.152 5.81818 16.8 5.49818 16.8 5.09091C16.8 4.68364 17.152 4.36364 17.6 4.36364C23.264 4.36364 27.2 8.96 27.2 13.0909C27.2 13.4982 26.848 13.8182 26.4 13.8182Z" fill="black"/>
</g>
<defs>
<clipPath id="clip0_6_144">
<rect width="32" height="32" fill="white"/>
</clipPath>
</defs>
</svg>
